<svg width="42" height="40" viewBox="0 0 42 40" fill="none" xmlns="http://www.w3.org/2000/svg">
    <path d="M16.1092 20.1369C16.1092 17.9152 16.7336 15.7619 17.7756 13.9565C16.04 12.3592 13.6786 11.4568 11.1098 11.3877C11.0407 11.3877 11.0407 11.3877 11.0407 11.3877C5.41626 11.3877 0.833862 15.9701 0.833862 21.5945C0.833862 27.2189 5.41626 31.802 11.0407 31.802C14.2353 31.802 17.0821 30.3437 18.9567 28.0528C17.1505 25.8996 16.1092 23.1227 16.1092 20.1369Z" fill="white"/>
    <path d="M28.4693 7.77682C23.8862 7.77682 19.9282 10.2765 17.7756 13.9565C16.7343 15.7619 16.1092 17.8453 16.1092 20.1369C16.1092 23.1227 17.1506 25.8305 18.956 27.983C21.2482 30.7607 24.6496 32.4963 28.4693 32.4963C35.274 32.4963 40.8286 26.941 40.8286 20.1369C40.8286 13.3321 35.274 7.77682 28.4693 7.77682Z" fill="white"/>
    <path d="M36.8707 1.73611C37.5649 1.73611 38.19 2.29136 38.19 3.05544C38.19 3.81952 37.634 4.37477 36.8707 4.37477C36.1073 4.37477 35.5513 3.81883 35.5513 3.05544C35.5513 2.29206 36.1764 1.73611 36.8707 1.73611Z" fill="white"/>
    <path d="M6.04068 9.58224C7.49797 9.58224 8.67935 8.40087 8.67935 6.94358C8.67935 5.48629 7.49797 4.30492 6.04068 4.30492C4.58339 4.30492 3.40204 5.48629 3.40204 6.94358C3.40204 8.40087 4.58339 9.58224 6.04068 9.58224Z" fill="white"/>
    <path d="M11.2488 34.7186C12.221 34.7186 12.9844 35.482 12.9844 36.4542C12.9844 37.4264 12.221 38.1898 11.2488 38.1898C10.2766 38.1898 9.51251 37.4264 9.51251 36.4542C9.51251 35.482 10.2766 34.7186 11.2488 34.7186Z" fill="white"/>
    <path d="M28.5377 11.6657L28.7465 12.2209C28.8164 12.429 29.0238 12.568 29.2326 12.568H29.7879C30.274 12.568 30.5519 13.2623 30.1357 13.5402L29.6496 13.8874C29.4408 14.0263 29.3716 14.2345 29.4407 14.5124L29.6496 15.0677C29.7879 15.5538 29.2326 15.9701 28.8164 15.6928L28.3303 15.3457C28.1221 15.2067 27.9133 15.2067 27.7058 15.3457L27.2197 15.6928C26.8028 15.9701 26.2475 15.5538 26.3865 15.0677L26.5947 14.5124C26.6645 14.3036 26.5947 14.0263 26.3865 13.8874L25.9004 13.5402C25.4841 13.263 25.6923 12.568 26.2475 12.568H26.8035C27.0116 12.568 27.2204 12.429 27.2896 12.2209L27.4977 11.6657C27.7052 11.1097 28.3994 11.1097 28.5377 11.6657Z" fill="white"/>
    <path d="M10.6929 15.0677L10.8319 15.4847C10.901 15.6928 11.04 15.7619 11.2488 15.7619H11.735C12.1519 15.7619 12.36 16.3172 12.0129 16.526L11.6658 16.8033C11.5268 16.9423 11.4577 17.0813 11.5268 17.2894L11.6658 17.7064C11.8048 18.1233 11.3187 18.4006 10.9716 18.1925L10.6244 17.9152C10.4855 17.7762 10.2773 17.7762 10.1383 17.9152L9.79122 18.1925C9.4441 18.4704 9.02784 18.1233 9.09698 17.7064L9.23596 17.2894C9.3058 17.0813 9.23597 16.9423 9.09698 16.8033L8.6807 16.526C8.33359 16.248 8.54172 15.7619 8.95868 15.7619H9.44479C9.65292 15.7619 9.79191 15.6229 9.86174 15.4847L10.0007 15.0677C9.99867 14.6514 10.5546 14.6514 10.6929 15.0677Z" fill="white"/>
    <path d="M39.6483 34.0935C39.9954 34.4407 39.9954 34.9959 39.6483 35.3437C39.3012 35.6908 38.7453 35.6908 38.3982 35.3437C38.051 34.9966 38.051 34.4407 38.3982 34.0935C38.7453 33.7464 39.3012 33.7464 39.6483 34.0935Z" fill="#52B69A"/>
    <path d="M37.912 16.7341C38.2591 17.0813 38.2591 17.6365 37.912 17.9836C37.5649 18.3314 37.0096 18.3314 36.6618 17.9836C36.3147 17.6365 36.3147 17.0813 36.6618 16.7341C37.0096 16.387 37.5649 16.387 37.912 16.7341Z" fill="#52B69A"/>
    <path d="M29.2326 1.94425C29.5798 2.29137 29.5798 2.84731 29.2326 3.19443C28.8855 3.54155 28.3296 3.54155 27.9824 3.19443C27.6353 2.84731 27.6353 2.29206 27.9824 1.94425C28.3303 1.66628 28.8862 1.66628 29.2326 1.94425Z" fill="#52B69A"/>
    <path d="M21.4556 34.0935C21.8028 34.4407 21.8028 34.9959 21.4556 35.3437C21.1085 35.6908 20.5526 35.6908 20.2055 35.3437C19.8583 34.9966 19.8583 34.4407 20.2055 34.0935C20.5533 33.7464 21.1085 33.7464 21.4556 34.0935Z" fill="#52B69A"/>
    <path d="M18.817 4.58289C19.1642 4.93001 19.1642 5.48596 18.817 5.83308C18.4699 6.1802 17.9147 6.1802 17.5669 5.83308C17.2197 5.48596 17.2197 4.93071 17.5669 4.58289C17.9147 4.23578 18.4699 4.23578 18.817 4.58289Z" fill="#52B69A"/>
    <path d="M11.04 0.20796C11.3871 0.555079 11.3871 1.11102 11.04 1.45814C10.6929 1.80526 10.1376 1.80526 9.79049 1.45814C9.44337 1.11102 9.44337 0.555079 9.79049 0.20796C10.1376 -0.0693201 10.6929 -0.0693201 11.04 0.20796Z" fill="#52B69A"/>
    <path d="M4.09693 33.1905C4.44405 33.5376 4.44405 34.0936 4.09693 34.4407C3.74982 34.7878 3.19388 34.7878 2.84676 34.4407C2.49965 34.0936 2.49965 33.5376 2.84676 33.1905C3.19388 32.9125 3.74982 32.9125 4.09693 33.1905Z" fill="#52B69A"/>
    <path d="M11.04 32.6352C4.92951 32.6352 0 27.705 0 21.5945C0 15.4847 4.9302 10.5545 11.04 10.5545C11.1092 10.5545 11.1092 10.5545 11.179 10.5545C13.8177 10.5545 16.3865 11.5958 18.4001 13.3321C18.7472 13.6792 18.8163 14.1653 18.4699 14.5823C18.1228 14.9294 17.6367 14.9992 17.2197 14.6521C15.5533 13.1938 13.4007 12.3606 11.179 12.2914H11.1092C5.97087 12.2914 1.80473 16.4576 1.80473 21.5959C1.80473 26.7342 5.97087 30.9003 11.1092 30.9003C13.956 30.9003 16.5946 29.6508 18.3302 27.4285C18.6082 27.0806 19.1634 27.0115 19.5804 27.2895C19.9282 27.5674 19.9974 28.1227 19.7194 28.5396C17.4984 31.1769 14.3736 32.6352 11.04 32.6352Z" fill="#52B69A"/>
    <path d="M28.4693 33.3986C24.5106 33.3986 20.7614 31.663 18.2618 28.6074C16.3174 26.2467 15.276 23.2609 15.276 20.2053C15.276 17.9145 15.9011 15.6229 17.0123 13.6094C19.373 9.51241 23.7472 7.01273 28.4693 7.01273C35.7602 7.01273 41.6619 12.9144 41.6619 20.2053C41.6619 27.4278 35.7602 33.3986 28.4693 33.3986ZM28.4693 8.67918C24.3723 8.67918 20.5533 10.9009 18.5397 14.4426C17.5675 16.1782 17.0123 18.1918 17.0123 20.206C17.0123 22.8447 17.9153 25.4833 19.6509 27.4969C21.8726 30.1356 25.0672 31.663 28.5384 31.663C34.788 31.663 39.9263 26.4549 39.9263 20.1369C39.9256 13.8182 34.788 8.67918 28.4693 8.67918Z" fill="#52B69A"/>
    <path d="M28.4693 33.3986C24.5106 33.3986 20.7614 31.663 18.2618 28.6074C16.3174 26.2467 15.276 23.2609 15.276 20.2053C15.276 17.9145 15.9011 15.6229 17.0123 13.6094C19.373 9.51241 23.7472 7.01273 28.4693 7.01273C35.7602 7.01273 41.6619 12.9144 41.6619 20.2053C41.6619 27.4278 35.7602 33.3986 28.4693 33.3986ZM28.4693 8.67918C24.3723 8.67918 20.5533 10.9009 18.5397 14.4426C17.5675 16.1782 17.0123 18.1918 17.0123 20.206C17.0123 22.8447 17.9153 25.4833 19.6509 27.4969C21.8726 30.1356 25.0672 31.663 28.5384 31.663C34.788 31.663 39.9263 26.4549 39.9263 20.1369C39.9256 13.8182 34.788 8.67918 28.4693 8.67918Z" fill="#52B69A"/>
    <ellipse cx="28.5" cy="20" rx="12.5" ry="12" fill="#52B69A"/>
    <ellipse cx="11.5" cy="21" rx="10.5" ry="10" fill="#52B69A"/>
    <path d="M28.4693 29.9274C27.9832 29.9274 27.5662 29.5105 27.5662 29.0251C27.5662 28.5389 27.9825 28.122 28.4693 28.122C32.9134 28.1918 36.4544 24.581 36.4544 20.1369C36.4544 19.6508 36.8714 19.2338 37.3575 19.2338C37.8436 19.2338 38.2598 19.6508 38.2598 20.1369C38.1907 25.5525 33.8151 29.9274 28.4693 29.9274Z" fill="white"/>
    <path d="M29.1635 16.5952C28.8862 16.5952 28.6076 16.526 28.3303 16.3172L28.053 16.1091L27.7751 16.3172C27.5669 16.526 27.2198 16.5952 26.9418 16.5952C26.5249 16.5952 26.0394 16.387 25.8306 16.0399C25.5533 15.6928 25.4835 15.2067 25.6225 14.7897L25.7608 14.4426L25.4835 14.2345C24.9974 13.8873 24.7893 13.2623 24.9974 12.6372C25.2062 12.0812 25.6923 11.665 26.3167 11.665H26.6639L26.8028 11.3178C27.011 10.7626 27.4971 10.3456 28.1222 10.3456C28.7466 10.3456 29.3025 10.7626 29.4408 11.3178L29.5798 11.665H29.9269C30.552 11.665 31.1072 12.0812 31.2462 12.6372C31.4544 13.1924 31.2462 13.8175 30.7601 14.2345L30.4828 14.4426L30.6211 14.7897C30.7601 15.206 30.691 15.6928 30.413 16.0399C29.9968 16.387 29.5798 16.5952 29.1635 16.5952ZM27.15 13.4012C27.4272 13.6785 27.4971 14.0263 27.4971 14.4426C27.8442 14.3036 28.2605 14.3036 28.6076 14.4426C28.6076 14.0955 28.6774 13.6785 28.9554 13.4012C28.6076 13.3314 28.2605 13.0541 28.0523 12.7762C27.8442 13.0541 27.4971 13.3321 27.15 13.4012Z" fill="white"/>
    <path d="M11.179 19.2338C10.901 19.2338 10.6238 19.164 10.4149 18.9558L10.2759 18.8867L10.137 18.9558C9.92884 19.0948 9.65086 19.2338 9.37358 19.2338C8.95663 19.2338 8.54035 19.0257 8.33222 18.6786C8.05425 18.3314 8.05425 17.9152 8.12409 17.4982L8.19394 17.3592L8.05494 17.2901C7.56883 16.943 7.42986 16.387 7.56885 15.8318C7.77698 15.2765 8.26307 14.9287 8.81832 14.9287H8.95732L9.02645 14.7897C9.23459 14.2345 9.7207 13.8873 10.2759 13.8873C10.8319 13.8873 11.3173 14.2345 11.5261 14.7897L11.596 14.9287H11.735C12.2902 14.9287 12.7763 15.2758 12.9851 15.8318C13.1933 16.387 12.9851 16.943 12.499 17.2901L12.3601 17.3592L12.4299 17.4982C12.5689 17.9152 12.499 18.3314 12.2217 18.6786C11.9431 19.0257 11.596 19.2338 11.179 19.2338ZM9.79054 16.526C9.85969 16.665 9.92952 16.8731 9.92952 17.0121C10.1376 16.9423 10.2766 16.9423 10.4848 17.0121C10.4848 16.804 10.5546 16.665 10.6238 16.526C10.4848 16.4562 10.2766 16.3172 10.2068 16.1789C10.1377 16.387 9.99867 16.4569 9.79054 16.526Z" fill="white"/>
    <path d="M11.2488 39.0231C9.79052 39.0231 8.61017 37.8427 8.61017 36.3844C8.61017 34.9268 9.79052 33.7464 11.2488 33.7464C12.7065 33.7464 13.8875 34.9268 13.8875 36.3844C13.8875 37.8427 12.7065 39.0231 11.2488 39.0231ZM11.2488 35.5512C10.7627 35.5512 10.3458 35.9681 10.3458 36.4542C10.3458 36.9403 10.7627 37.3573 11.2488 37.3573C11.7349 37.3573 12.1512 36.9403 12.1512 36.4542C12.1512 35.9681 11.7349 35.5512 11.2488 35.5512Z" fill="#52B69A"/>
    <path d="M36.8706 5.208C35.6903 5.208 34.7181 4.23579 34.7181 3.05544C34.7181 1.8751 35.6903 0.902893 36.8706 0.902893C38.051 0.902893 39.0232 1.8751 39.0232 3.05544C39.0232 4.23579 38.051 5.208 36.8706 5.208ZM36.8706 2.56934C36.6618 2.56934 36.4537 2.77817 36.4537 2.9863C36.4537 3.19443 36.6618 3.40326 36.8706 3.40326C37.0788 3.40326 37.2876 3.19512 37.2876 2.9863C37.2876 2.77747 37.0788 2.56934 36.8706 2.56934Z" fill="#52B69A"/>
    <path d="M6.04067 10.4155C4.09694 10.4155 2.56879 8.88801 2.56879 6.94359C2.56879 4.99917 4.09694 3.47171 6.04067 3.47171C7.98508 3.47171 9.51254 4.99917 9.51254 6.94359C9.51254 8.88801 7.98508 10.4155 6.04067 10.4155ZM6.04067 5.20799C5.06846 5.20799 4.30508 5.97207 4.30508 6.94428C4.30508 7.91649 5.06846 8.67988 6.04067 8.67988C7.01287 8.67988 7.77696 7.91649 7.77696 6.94428C7.77696 5.97138 7.01287 5.20799 6.04067 5.20799Z" fill="#52B69A"/>
    <path d="M6.04067 10.4155C4.09694 10.4155 2.56879 8.88801 2.56879 6.94359C2.56879 4.99917 4.09694 3.47171 6.04067 3.47171C7.98508 3.47171 9.51254 4.99917 9.51254 6.94359C9.51254 8.88801 7.98508 10.4155 6.04067 10.4155ZM6.04067 5.20799C5.06846 5.20799 4.30508 5.97207 4.30508 6.94428C4.30508 7.91649 5.06846 8.67988 6.04067 8.67988C7.01287 8.67988 7.77696 7.91649 7.77696 6.94428C7.77696 5.97138 7.01287 5.20799 6.04067 5.20799Z" fill="#52B69A"/>
</svg>
