<svg width="229" height="57" viewBox="0 0 229 57" fill="none" xmlns="http://www.w3.org/2000/svg">
    <path d="M22.1279 44L19.9541 36.8633H9.02344L6.84961 44H0L10.582 13.8945H18.3545L28.9775 44H22.1279ZM18.4365 31.5312L16.2627 24.5586C16.126 24.0938 15.9414 23.499 15.709 22.7744C15.4902 22.0361 15.2646 21.291 15.0322 20.5391C14.8135 19.7734 14.6357 19.1104 14.499 18.5498C14.3623 19.1104 14.1709 19.8076 13.9248 20.6416C13.6924 21.4619 13.4668 22.2412 13.248 22.9795C13.0293 23.7178 12.8721 24.2441 12.7764 24.5586L10.623 31.5312H18.4365ZM38.9854 54.0898C35.7861 54.0898 33.3389 53.5293 31.6436 52.4082C29.9619 51.3008 29.1211 49.7422 29.1211 47.7324C29.1211 46.3516 29.5518 45.1963 30.4131 44.2666C31.2744 43.3369 32.5391 42.6738 34.207 42.2773C33.5645 42.0039 33.0039 41.5596 32.5254 40.9443C32.0469 40.3154 31.8076 39.6523 31.8076 38.9551C31.8076 38.0801 32.0605 37.3555 32.5664 36.7812C33.0723 36.1934 33.8037 35.6191 34.7607 35.0586C33.5576 34.5391 32.6006 33.7051 31.8896 32.5566C31.1924 31.4082 30.8438 30.0547 30.8438 28.4961C30.8438 26.8281 31.2061 25.4131 31.9307 24.251C32.6689 23.0752 33.7354 22.1797 35.1299 21.5645C36.5381 20.9492 38.2471 20.6416 40.2568 20.6416C40.6807 20.6416 41.1729 20.6689 41.7334 20.7236C42.2939 20.7783 42.8066 20.8398 43.2715 20.9082C43.75 20.9766 44.0713 21.0312 44.2354 21.0723H52.2334V24.251L48.6445 25.1738C48.9727 25.6797 49.2188 26.2197 49.3828 26.7939C49.5469 27.3682 49.6289 27.9766 49.6289 28.6191C49.6289 31.0801 48.7676 33.001 47.0449 34.3818C45.3359 35.749 42.957 36.4326 39.9082 36.4326C39.1836 36.3916 38.5 36.3369 37.8574 36.2686C37.543 36.5146 37.3037 36.7744 37.1396 37.0479C36.9756 37.3213 36.8936 37.6084 36.8936 37.9092C36.8936 38.21 37.0166 38.4629 37.2627 38.668C37.5225 38.8594 37.9053 39.0098 38.4111 39.1191C38.9307 39.2148 39.5732 39.2627 40.3389 39.2627H44.2354C46.751 39.2627 48.665 39.8027 49.9775 40.8828C51.3037 41.9629 51.9668 43.5488 51.9668 45.6406C51.9668 48.3203 50.8457 50.3984 48.6035 51.875C46.375 53.3516 43.1689 54.0898 38.9854 54.0898ZM39.252 50.0088C40.7422 50.0088 42.0205 49.8652 43.0869 49.5781C44.167 49.3047 44.9941 48.9082 45.5684 48.3887C46.1426 47.8828 46.4297 47.2744 46.4297 46.5635C46.4297 45.9893 46.2588 45.5312 45.917 45.1895C45.5889 44.8613 45.083 44.6289 44.3994 44.4922C43.7295 44.3555 42.8682 44.2871 41.8154 44.2871H38.5752C37.8096 44.2871 37.1191 44.4102 36.5039 44.6562C35.9023 44.9023 35.4238 45.2441 35.0684 45.6816C34.7129 46.1328 34.5352 46.6523 34.5352 47.2402C34.5352 48.1016 34.9453 48.7783 35.7656 49.2705C36.5996 49.7627 37.7617 50.0088 39.252 50.0088ZM40.2568 32.6182C41.4326 32.6182 42.2939 32.2559 42.8408 31.5312C43.3877 30.8066 43.6611 29.8223 43.6611 28.5781C43.6611 27.1973 43.374 26.165 42.7998 25.4814C42.2393 24.7842 41.3916 24.4355 40.2568 24.4355C39.1084 24.4355 38.2471 24.7842 37.6729 25.4814C37.0986 26.165 36.8115 27.1973 36.8115 28.5781C36.8115 29.8223 37.0918 30.8066 37.6523 31.5312C38.2266 32.2559 39.0947 32.6182 40.2568 32.6182ZM68.8242 20.6416C69.1387 20.6416 69.501 20.6621 69.9111 20.7031C70.335 20.7305 70.6768 20.7715 70.9365 20.8262L70.4648 26.6914C70.2598 26.623 69.9658 26.5752 69.583 26.5479C69.2139 26.5068 68.8926 26.4863 68.6191 26.4863C67.8125 26.4863 67.0264 26.5889 66.2607 26.7939C65.5088 26.999 64.832 27.334 64.2305 27.7988C63.6289 28.25 63.1504 28.8516 62.7949 29.6035C62.4531 30.3418 62.2822 31.251 62.2822 32.3311V44H56.0273V21.0723H60.7646L61.6875 24.9277H61.9951C62.4463 24.1484 63.0068 23.4375 63.6768 22.7949C64.3604 22.1387 65.1328 21.6191 65.9941 21.2363C66.8691 20.8398 67.8125 20.6416 68.8242 20.6416Z" fill="white"/>
    <path d="M131.507 14.0176C135.376 14.0176 138.199 14.8516 139.977 16.5195C141.754 18.1738 142.643 20.457 142.643 23.3691C142.643 24.6816 142.444 25.9395 142.048 27.1426C141.651 28.332 141.002 29.3916 140.1 30.3213C139.211 31.251 138.021 31.9893 136.531 32.5361C135.041 33.0693 133.202 33.3359 131.015 33.3359H128.287V44H121.93V14.0176H131.507ZM131.179 19.2266H128.287V28.127H130.379C131.568 28.127 132.601 27.9697 133.476 27.6553C134.351 27.3408 135.027 26.8486 135.506 26.1787C135.984 25.5088 136.224 24.6475 136.224 23.5947C136.224 22.1182 135.813 21.0244 134.993 20.3135C134.173 19.5889 132.901 19.2266 131.179 19.2266ZM168.852 21.0723V44H164.053L163.212 41.0674H162.884C162.392 41.8467 161.776 42.4824 161.038 42.9746C160.3 43.4668 159.486 43.8291 158.598 44.0615C157.709 44.2939 156.786 44.4102 155.829 44.4102C154.188 44.4102 152.76 44.123 151.543 43.5488C150.326 42.9609 149.376 42.0518 148.692 40.8213C148.022 39.5908 147.688 37.9912 147.688 36.0225V21.0723H153.942V34.4639C153.942 36.1045 154.236 37.3418 154.824 38.1758C155.412 39.0098 156.349 39.4268 157.634 39.4268C158.905 39.4268 159.903 39.1396 160.628 38.5654C161.353 37.9775 161.858 37.123 162.146 36.002C162.446 34.8672 162.597 33.4863 162.597 31.8594V21.0723H168.852ZM181.669 44H175.414V12.0898H181.669V44ZM204.248 37.1914C204.248 38.75 203.879 40.0693 203.141 41.1494C202.416 42.2158 201.329 43.0293 199.88 43.5898C198.431 44.1367 196.626 44.4102 194.466 44.4102C192.866 44.4102 191.492 44.3076 190.344 44.1025C189.209 43.8975 188.061 43.5557 186.898 43.0771V37.9092C188.143 38.4697 189.476 38.9346 190.897 39.3037C192.333 39.6592 193.591 39.8369 194.671 39.8369C195.888 39.8369 196.756 39.6592 197.275 39.3037C197.809 38.9346 198.075 38.4561 198.075 37.8682C198.075 37.4854 197.966 37.1436 197.747 36.8428C197.542 36.5283 197.091 36.1797 196.394 35.7969C195.696 35.4004 194.603 34.8877 193.112 34.2588C191.677 33.6572 190.494 33.0488 189.564 32.4336C188.648 31.8184 187.965 31.0938 187.514 30.2598C187.076 29.4121 186.857 28.3389 186.857 27.04C186.857 24.9209 187.678 23.3281 189.318 22.2617C190.973 21.1816 193.181 20.6416 195.942 20.6416C197.364 20.6416 198.718 20.7852 200.003 21.0723C201.302 21.3594 202.635 21.8174 204.002 22.4463L202.115 26.958C200.98 26.4658 199.907 26.0625 198.896 25.748C197.897 25.4336 196.879 25.2764 195.84 25.2764C194.924 25.2764 194.233 25.3994 193.769 25.6455C193.304 25.8916 193.071 26.2676 193.071 26.7734C193.071 27.1426 193.188 27.4707 193.42 27.7578C193.666 28.0449 194.131 28.3662 194.814 28.7217C195.512 29.0635 196.53 29.5078 197.87 30.0547C199.169 30.5879 200.297 31.1484 201.254 31.7363C202.211 32.3105 202.949 33.0283 203.469 33.8896C203.988 34.7373 204.248 35.8379 204.248 37.1914ZM218.583 20.6416C220.702 20.6416 222.527 21.0518 224.059 21.8721C225.59 22.6787 226.772 23.8545 227.606 25.3994C228.44 26.9443 228.857 28.8311 228.857 31.0596V34.0947H214.071C214.14 35.8584 214.666 37.2461 215.65 38.2578C216.648 39.2559 218.029 39.7549 219.793 39.7549C221.256 39.7549 222.596 39.6045 223.812 39.3037C225.029 39.0029 226.28 38.5518 227.565 37.9502V42.79C226.431 43.3506 225.241 43.7607 223.997 44.0205C222.767 44.2803 221.27 44.4102 219.506 44.4102C217.209 44.4102 215.172 43.9863 213.395 43.1387C211.631 42.291 210.243 40.999 209.231 39.2627C208.233 37.5264 207.734 35.3389 207.734 32.7002C207.734 30.0205 208.186 27.792 209.088 26.0146C210.004 24.2236 211.275 22.8838 212.902 21.9951C214.529 21.0928 216.423 20.6416 218.583 20.6416ZM218.624 25.0918C217.407 25.0918 216.396 25.4814 215.589 26.2607C214.796 27.04 214.338 28.2637 214.215 29.9316H222.992C222.979 29.002 222.808 28.1748 222.479 27.4502C222.165 26.7256 221.687 26.1514 221.044 25.7275C220.415 25.3037 219.608 25.0918 218.624 25.0918Z" fill="white"/>
    <path d="M89.2062 29.1217C89.2062 25.9087 90.1092 22.7947 91.6162 20.1837C89.1062 17.8737 85.6912 16.5688 81.9762 16.4688C81.8762 16.4688 81.8762 16.4688 81.8762 16.4688C73.7422 16.4688 67.1152 23.0958 67.1152 31.2298C67.1152 39.3638 73.7422 45.9918 81.8762 45.9918C86.4962 45.9918 90.6132 43.8827 93.3242 40.5697C90.7122 37.4557 89.2062 33.4398 89.2062 29.1217Z" fill="white"/>
    <path d="M107.081 11.2468C100.453 11.2468 94.7292 14.8618 91.6162 20.1838C90.1102 22.7948 89.2062 25.8078 89.2062 29.1218C89.2062 33.4398 90.7122 37.3558 93.3232 40.4688C96.6382 44.4858 101.557 46.9958 107.081 46.9958C116.922 46.9958 124.955 38.9618 124.955 29.1218C124.955 19.2808 116.922 11.2468 107.081 11.2468Z" fill="white"/>
    <path d="M119.231 2.51074C120.235 2.51074 121.139 3.31374 121.139 4.41874C121.139 5.52374 120.335 6.32674 119.231 6.32674C118.127 6.32674 117.323 5.52274 117.323 4.41874C117.323 3.31474 118.227 2.51074 119.231 2.51074Z" fill="white"/>
    <path d="M74.6452 13.8577C76.7527 13.8577 78.4612 12.1493 78.4612 10.0417C78.4612 7.93422 76.7527 6.22574 74.6452 6.22574C72.5377 6.22574 70.8292 7.93422 70.8292 10.0417C70.8292 12.1493 72.5377 13.8577 74.6452 13.8577Z" fill="white"/>
    <path d="M82.1772 50.2097C83.5832 50.2097 84.6872 51.3137 84.6872 52.7197C84.6872 54.1257 83.5832 55.2298 82.1772 55.2298C80.7712 55.2298 79.6662 54.1257 79.6662 52.7197C79.6662 51.3137 80.7712 50.2097 82.1772 50.2097Z" fill="white"/>
    <path d="M107.18 16.8708L107.482 17.6738C107.583 17.9748 107.883 18.1758 108.185 18.1758H108.988C109.691 18.1758 110.093 19.1798 109.491 19.5818L108.788 20.0838C108.486 20.2848 108.386 20.5858 108.486 20.9878L108.788 21.7908C108.988 22.4938 108.185 23.0958 107.583 22.6948L106.88 22.1928C106.579 21.9918 106.277 21.9918 105.977 22.1928L105.274 22.6948C104.671 23.0958 103.868 22.4938 104.069 21.7908L104.37 20.9878C104.471 20.6858 104.37 20.2848 104.069 20.0838L103.366 19.5818C102.764 19.1808 103.065 18.1758 103.868 18.1758H104.672C104.973 18.1758 105.275 17.9748 105.375 17.6738L105.676 16.8708C105.976 16.0668 106.98 16.0668 107.18 16.8708Z" fill="white"/>
    <path d="M81.3732 21.7907L81.5742 22.3937C81.6742 22.6947 81.8752 22.7947 82.1772 22.7947H82.8802C83.4832 22.7947 83.7842 23.5977 83.2822 23.8997L82.7802 24.3007C82.5792 24.5017 82.4792 24.7027 82.5792 25.0037L82.7802 25.6067C82.9812 26.2097 82.2782 26.6107 81.7762 26.3097L81.2742 25.9087C81.0732 25.7077 80.7722 25.7077 80.5712 25.9087L80.0692 26.3097C79.5672 26.7117 78.9652 26.2097 79.0652 25.6067L79.2662 25.0037C79.3672 24.7027 79.2662 24.5017 79.0652 24.3007L78.4632 23.8997C77.9612 23.4977 78.2622 22.7947 78.8652 22.7947H79.5682C79.8692 22.7947 80.0702 22.5937 80.1712 22.3937L80.3722 21.7907C80.3692 21.1887 81.1732 21.1887 81.3732 21.7907Z" fill="white"/>
    <path d="M123.248 49.3058C123.75 49.8078 123.75 50.6108 123.248 51.1138C122.746 51.6158 121.942 51.6158 121.44 51.1138C120.938 50.6118 120.938 49.8078 121.44 49.3058C121.942 48.8038 122.746 48.8038 123.248 49.3058Z" fill="#52B69A"/>
    <path d="M120.737 24.2007C121.239 24.7027 121.239 25.5057 120.737 26.0077C120.235 26.5107 119.432 26.5107 118.929 26.0077C118.427 25.5057 118.427 24.7027 118.929 24.2007C119.432 23.6987 120.235 23.6987 120.737 24.2007Z" fill="#52B69A"/>
    <path d="M108.185 2.81175C108.687 3.31375 108.687 4.11775 108.185 4.61975C107.683 5.12175 106.879 5.12175 106.377 4.61975C105.875 4.11775 105.875 3.31475 106.377 2.81175C106.88 2.40975 107.684 2.40975 108.185 2.81175Z" fill="#52B69A"/>
    <path d="M96.9382 49.3058C97.4402 49.8078 97.4402 50.6108 96.9382 51.1138C96.4362 51.6158 95.6322 51.6158 95.1302 51.1138C94.6282 50.6118 94.6282 49.8078 95.1302 49.3058C95.6332 48.8038 96.4362 48.8038 96.9382 49.3058Z" fill="#52B69A"/>
    <path d="M93.1222 6.62775C93.6242 7.12975 93.6242 7.93376 93.1222 8.43576C92.6202 8.93776 91.8172 8.93776 91.3142 8.43576C90.8122 7.93376 90.8122 7.13075 91.3142 6.62775C91.8172 6.12575 92.6202 6.12575 93.1222 6.62775Z" fill="#52B69A"/>
    <path d="M81.8752 0.30075C82.3772 0.80275 82.3772 1.60675 81.8752 2.10875C81.3732 2.61075 80.5702 2.61075 80.0682 2.10875C79.5662 1.60675 79.5662 0.80275 80.0682 0.30075C80.5702 -0.10025 81.3732 -0.10025 81.8752 0.30075Z" fill="#52B69A"/>
    <path d="M71.8342 47.9997C72.3362 48.5017 72.3362 49.3057 71.8342 49.8077C71.3322 50.3097 70.5282 50.3097 70.0262 49.8077C69.5242 49.3057 69.5242 48.5017 70.0262 47.9997C70.5282 47.5977 71.3322 47.5977 71.8342 47.9997Z" fill="#52B69A"/>
    <path d="M81.8752 47.1967C73.0382 47.1967 65.9092 40.0667 65.9092 31.2297C65.9092 22.3937 73.0392 15.2637 81.8752 15.2637C81.9752 15.2637 81.9752 15.2637 82.0762 15.2637C85.8922 15.2637 89.6072 16.7697 92.5192 19.2807C93.0212 19.7827 93.1212 20.4857 92.6202 21.0887C92.1182 21.5907 91.4152 21.6917 90.8122 21.1897C88.4022 19.0807 85.2892 17.8757 82.0762 17.7757H81.9752C74.5442 17.7757 68.5192 23.8007 68.5192 31.2317C68.5192 38.6627 74.5442 44.6877 81.9752 44.6877C86.0922 44.6877 89.9082 42.8807 92.4182 39.6667C92.8202 39.1637 93.6232 39.0637 94.2262 39.4657C94.7292 39.8677 94.8292 40.6707 94.4272 41.2737C91.2152 45.0877 86.6962 47.1967 81.8752 47.1967Z" fill="#52B69A"/>
    <path d="M107.081 48.3008C101.356 48.3008 95.9342 45.7908 92.3192 41.3718C89.5072 37.9578 88.0012 33.6398 88.0012 29.2208C88.0012 25.9078 88.9052 22.5938 90.5122 19.6818C93.9262 13.7568 100.252 10.1418 107.081 10.1418C117.625 10.1418 126.16 18.6768 126.16 29.2208C126.16 39.6658 117.625 48.3008 107.081 48.3008ZM107.081 12.5518C101.156 12.5518 95.6332 15.7648 92.7212 20.8868C91.3152 23.3968 90.5122 26.3088 90.5122 29.2218C90.5122 33.0378 91.8182 36.8538 94.3282 39.7658C97.5412 43.5818 102.161 45.7908 107.181 45.7908C116.219 45.7908 123.65 38.2588 123.65 29.1218C123.649 19.9838 116.219 12.5518 107.081 12.5518Z" fill="#52B69A"/>
    <path d="M107.081 43.2807C106.378 43.2807 105.775 42.6777 105.775 41.9757C105.775 41.2727 106.377 40.6697 107.081 40.6697C113.508 40.7707 118.629 35.5487 118.629 29.1217C118.629 28.4187 119.232 27.8157 119.935 27.8157C120.638 27.8157 121.24 28.4187 121.24 29.1217C121.14 36.9537 114.812 43.2807 107.081 43.2807Z" fill="#52B69A"/>
    <path d="M108.085 23.9997C107.684 23.9997 107.281 23.8997 106.88 23.5977L106.479 23.2967L106.077 23.5977C105.776 23.8997 105.274 23.9997 104.872 23.9997C104.269 23.9997 103.567 23.6987 103.265 23.1967C102.864 22.6947 102.763 21.9917 102.964 21.3887L103.164 20.8867L102.763 20.5857C102.06 20.0837 101.759 19.1797 102.06 18.2757C102.362 17.4717 103.065 16.8697 103.968 16.8697H104.47L104.671 16.3677C104.972 15.5647 105.675 14.9617 106.579 14.9617C107.482 14.9617 108.286 15.5647 108.486 16.3677L108.687 16.8697H109.189C110.093 16.8697 110.896 17.4717 111.097 18.2757C111.398 19.0787 111.097 19.9827 110.394 20.5857L109.993 20.8867L110.193 21.3887C110.394 21.9907 110.294 22.6947 109.892 23.1967C109.29 23.6987 108.687 23.9997 108.085 23.9997ZM105.173 19.3807C105.574 19.7817 105.675 20.2847 105.675 20.8867C106.177 20.6857 106.779 20.6857 107.281 20.8867C107.281 20.3847 107.382 19.7817 107.784 19.3807C107.281 19.2797 106.779 18.8787 106.478 18.4767C106.177 18.8787 105.675 19.2807 105.173 19.3807Z" fill="#52B69A"/>
    <path d="M82.0762 27.8157C81.6742 27.8157 81.2732 27.7147 80.9712 27.4137L80.7702 27.3137L80.5692 27.4137C80.2682 27.6147 79.8662 27.8157 79.4652 27.8157C78.8622 27.8157 78.2602 27.5147 77.9592 27.0127C77.5572 26.5107 77.5572 25.9087 77.6582 25.3057L77.7592 25.1047L77.5582 25.0047C76.8552 24.5027 76.6542 23.6987 76.8552 22.8957C77.1562 22.0927 77.8592 21.5897 78.6622 21.5897H78.8632L78.9632 21.3887C79.2642 20.5857 79.9672 20.0837 80.7702 20.0837C81.5742 20.0837 82.2762 20.5857 82.5782 21.3887L82.6792 21.5897H82.8802C83.6832 21.5897 84.3862 22.0917 84.6882 22.8957C84.9892 23.6987 84.6882 24.5027 83.9852 25.0047L83.7842 25.1047L83.8852 25.3057C84.0862 25.9087 83.9852 26.5107 83.5842 27.0127C83.1812 27.5147 82.6792 27.8157 82.0762 27.8157ZM80.0682 23.8997C80.1682 24.1007 80.2692 24.4017 80.2692 24.6027C80.5702 24.5017 80.7712 24.5017 81.0722 24.6027C81.0722 24.3017 81.1732 24.1007 81.2732 23.8997C81.0722 23.7987 80.7712 23.5977 80.6702 23.3977C80.5702 23.6987 80.3692 23.7997 80.0682 23.8997Z" fill="#52B69A"/>
    <path d="M82.1772 56.4347C80.0682 56.4347 78.3612 54.7277 78.3612 52.6187C78.3612 50.5107 80.0682 48.8037 82.1772 48.8037C84.2852 48.8037 85.9932 50.5107 85.9932 52.6187C85.9932 54.7277 84.2852 56.4347 82.1772 56.4347ZM82.1772 51.4137C81.4742 51.4137 80.8712 52.0167 80.8712 52.7197C80.8712 53.4227 81.4742 54.0257 82.1772 54.0257C82.8802 54.0257 83.4822 53.4227 83.4822 52.7197C83.4822 52.0167 82.8802 51.4137 82.1772 51.4137Z" fill="#52B69A"/>
    <path d="M119.231 7.53175C117.524 7.53175 116.118 6.12575 116.118 4.41875C116.118 2.71175 117.524 1.30576 119.231 1.30576C120.938 1.30576 122.344 2.71175 122.344 4.41875C122.344 6.12575 120.938 7.53175 119.231 7.53175ZM119.231 3.71576C118.929 3.71576 118.628 4.01776 118.628 4.31876C118.628 4.61976 118.929 4.92176 119.231 4.92176C119.532 4.92176 119.834 4.62076 119.834 4.31876C119.834 4.01676 119.532 3.71576 119.231 3.71576Z" fill="#52B69A"/>
    <path d="M74.6452 15.0628C71.8342 15.0628 69.6242 12.8537 69.6242 10.0417C69.6242 7.22975 71.8342 5.02075 74.6452 5.02075C77.4572 5.02075 79.6662 7.22975 79.6662 10.0417C79.6662 12.8537 77.4572 15.0628 74.6452 15.0628ZM74.6452 7.53175C73.2392 7.53175 72.1352 8.63675 72.1352 10.0427C72.1352 11.4487 73.2392 12.5527 74.6452 12.5527C76.0512 12.5527 77.1562 11.4487 77.1562 10.0427C77.1562 8.63575 76.0512 7.53175 74.6452 7.53175Z" fill="#52B69A"/>
</svg>
